<svg width="24" height="23" viewBox="0 0 24 23" fill="none" xmlns="http://www.w3.org/2000/svg">
<path d="M12.0051 3.64645C12.0051 3.64645 11.5322 4.04562 11.0431 4.75669M10.0021 8.53238C9.84062 6.92282 10.4537 5.61339 11.0431 4.75669M11.0431 4.75669C11.6106 3.9346 12.3151 3.29822 13.0357 2.81405M13.0357 2.81405C14.3043 1.96163 15.6226 1.58105 16.3303 1.48957C17.1577 1.45615 17.9832 1.59359 18.7567 1.89352C19.5303 2.19345 20.236 2.64964 20.831 3.23454C23.4043 5.79617 23.7821 10.6263 21.4562 13.4776C19.1303 16.3289 15.3169 17.5923 12.9704 20.4924C12.5902 20.9538 12.2661 21.4599 12.005 22C11.7451 21.46 11.4221 20.9539 11.0431 20.4924C8.69311 17.5923 4.90349 16.3568 2.55353 13.4776C0.203582 10.5984 0.605655 5.79966 3.17892 3.23454C4.55749 1.55939 7.7105 -0.607809 13.0357 2.81405Z" stroke="#E95322" stroke-width="2" stroke-linecap="round" stroke-linejoin="round"/>
</svg>
