<svg width="44" height="42" viewBox="0 0 44 42" fill="none" xmlns="http://www.w3.org/2000/svg">
<path d="M35.6319 32.9338C36.3944 32.8372 37.1676 32.9908 37.8352 33.3716C38.5029 33.7523 39.0288 34.3396 39.3338 35.0451C39.7071 35.907 39.7227 36.8819 39.3772 37.7553C39.0317 38.6287 38.3534 39.3292 37.4915 39.7025C37.0644 39.8882 36.6048 39.9878 36.1392 39.9957C35.6735 40.0036 35.2109 39.9196 34.7778 39.7485C34.3446 39.5773 33.9495 39.3225 33.615 38.9984C33.2805 38.6744 33.0131 38.2876 32.8283 37.8601C32.6217 37.3881 32.5213 36.8764 32.5341 36.3613C32.547 35.8463 32.6728 35.3403 32.9027 34.8791M17.5687 34.8906H32.9256M20.8873 30.3304C20.3803 29.6676 19.7298 29.1282 18.9847 28.7527C18.2395 28.3771 17.4189 28.1751 16.5846 28.1619C13.3518 28.1619 10.7256 31.1715 10.7256 34.8849V35.251H14.1586M42.2404 35.6115C42.2389 33.9782 41.589 32.4123 40.4335 31.2579C39.278 30.1035 37.7115 29.455 36.0782 29.455M20.9445 35.251C21.0571 35.6084 21.1149 35.9807 21.1161 36.3553C21.1161 37.2952 20.7432 38.1966 20.0791 38.8617C19.4151 39.5268 18.5143 39.9012 17.5744 39.9027C16.6336 39.9027 15.7313 39.529 15.066 38.8637C14.4007 38.1985 14.027 37.2962 14.027 36.3553C14.0273 35.9802 14.0871 35.6074 14.2044 35.251M38.3325 29.8822L35.2657 18.458C35.2657 18.458 38.0808 18.3951 37.2912 14.5158M11.8757 30.9369V24.8377C11.8711 24.5862 11.9163 24.3363 12.0085 24.1024C12.1007 23.8684 12.2382 23.6549 12.4131 23.4742C12.5879 23.2935 12.7968 23.1491 13.0276 23.0492C13.2584 22.9493 13.5066 22.896 13.7581 22.8923H18.3697C18.7387 22.8878 19.1041 22.9661 19.4388 23.1216C19.7735 23.2771 20.069 23.5057 20.3036 23.7906C20.9445 24.5859 24.921 30.4677 24.921 30.4677H30.5282C30.8186 30.4631 31.1049 30.3992 31.3697 30.28C31.6346 30.1608 31.8723 29.9888 32.0683 29.7745C32.2643 29.5603 32.4146 29.3083 32.5099 29.034C32.6051 28.7596 32.6434 28.4687 32.6223 28.1791L31.2091 16.7358C31.189 16.5591 31.2063 16.3802 31.2601 16.2106C31.3138 16.0411 31.4027 15.8848 31.521 15.752C31.6393 15.6191 31.7842 15.5128 31.9464 15.4397C32.1086 15.3667 32.2843 15.3288 32.4621 15.3283H33.6064M30.8486 12.7936H29.2866M26.5002 30.4677V24.9235C26.5002 23.4819 25.9275 22.0993 24.9081 21.08C23.8888 20.0606 22.5062 19.4879 21.0646 19.4879H15.8293M9.80444 40H17.5687M25.722 40H35.6434M7.51006 31.7093H11.1032M2.00012 26.2509H7.17248M26.2313 7.88444C25.7952 8.29092 25.2608 8.57685 24.6807 8.71408C23.8026 8.91228 22.8819 8.75768 22.1167 8.28359C21.3515 7.80951 20.8031 7.05386 20.5897 6.17939C20.3913 5.30213 20.5451 4.38206 21.0181 3.61702C21.491 2.85199 22.2453 2.30311 23.1187 2.08842C23.5657 1.98495 24.0289 1.97215 24.481 2.05077C24.9331 2.12939 25.3648 2.29784 25.7506 2.54615C26.191 2.81655 26.5553 3.19461 26.8091 3.64471C27.0323 4.07383 27.1238 4.60594 27.5186 4.92063C28.1537 5.42986 29.0978 5.12661 29.7443 4.8062M24.9897 15.849L23.113 19.8942M30.4195 12.7707H29.0864C28.7074 12.7714 28.3378 12.653 28.0298 12.4323C27.7218 12.2116 27.491 11.8996 27.3699 11.5406C27.118 10.9638 26.7433 10.4489 26.2719 10.0319C25.8005 9.61486 25.2438 9.30572 24.6406 9.12604C23.0463 8.4916 21.274 8.46715 19.6628 9.05737C18.3505 9.57955 17.2576 10.5371 16.5674 11.7694C16.0647 12.6743 15.8009 13.6924 15.8007 14.7275V19.4708H20.8873M23.4448 12.7707C23.4448 12.7707 24.2745 18.7727 31.1977 16.8789M27.4156 4.83481C27.4156 4.83481 23.8339 5.91047 20.8357 3.92506M9.55269 13.074H14.542C14.8834 13.074 15.2108 13.2096 15.4523 13.451C15.6937 13.6925 15.8293 14.0199 15.8293 14.3613V21.6049C15.8293 21.9464 15.6937 22.2738 15.4523 22.5152C15.2108 22.7567 14.8834 22.8923 14.542 22.8923H5.87367C5.53224 22.8923 5.20479 22.7567 4.96336 22.5152C4.72194 22.2738 4.5863 21.9464 4.5863 21.6049V18.0232C4.59084 16.709 5.11609 15.4502 6.04698 14.5225C6.97786 13.5948 8.23849 13.074 9.55269 13.074Z" stroke="#E95322" stroke-width="2.28866" stroke-linecap="round" stroke-linejoin="round"/>
</svg>
