<svg width="24" height="24" viewBox="0 0 24 24" fill="none" xmlns="http://www.w3.org/2000/svg">
<path d="M11.5334 11.9998H1.6786M4.2086 14.6562L2.25986 13.1775C2.07882 13.0395 1.93204 12.8615 1.83102 12.6575C1.73001 12.4535 1.67749 12.229 1.67749 12.0013C1.67749 11.7737 1.73001 11.5491 1.83102 11.3451C1.93204 11.1411 2.07882 10.9632 2.25986 10.8252L4.2086 9.34336M17.9547 5.50926V18.4904M7.95224 16.12C9.75936 22.8455 14.8585 22.3124 14.8585 22.3124C14.8585 22.3124 19.9787 22.8455 21.7647 16.12C22.4665 13.418 22.4665 10.5815 21.7647 7.87955C19.9727 1.15408 14.8585 1.68723 14.8585 1.68723C14.8585 1.68723 9.73827 1.15408 7.95224 7.87955" stroke="#E95322" stroke-width="2" stroke-linecap="round" stroke-linejoin="round"/>
</svg>
