<svg width="17" height="24" viewBox="0 0 17 24" fill="none" xmlns="http://www.w3.org/2000/svg">
<path d="M8.42013 8.44248C10.4753 8.44248 12.1414 6.77642 12.1414 4.72124C12.1414 2.66606 10.4753 1 8.42013 1C6.36495 1 4.69889 2.66606 4.69889 4.72124C4.69889 6.77642 6.36495 8.44248 8.42013 8.44248Z" stroke="#F8F8F8" stroke-linecap="round" stroke-linejoin="round"/>
<path d="M15.2705 19.3118C13.4843 23.3241 8.39702 22.9934 8.39702 22.9934C8.39702 22.9934 3.30635 23.3109 1.52346 19.3118C1.17841 18.5425 1 17.7088 1 16.8657C1 16.0225 1.17841 15.189 1.52346 14.4197C3.30635 10.4073 8.39702 10.7381 8.39702 10.7381C8.39702 10.7381 13.4843 10.4206 15.2705 14.4197C15.6155 15.189 15.794 16.0225 15.794 16.8657C15.794 17.7088 15.6155 18.5425 15.2705 19.3118Z" stroke="#F8F8F8" stroke-linecap="round" stroke-linejoin="round"/>
</svg>
